<?xml version="1.0" encoding="utf-8"?>
<!-- Generator: Adobe Illustrator 16.2.1, SVG Export Plug-In . SVG Version: 6.00 Build 0)  -->
<!DOCTYPE svg PUBLIC "-//W3C//DTD SVG 1.1//EN" "http://www.w3.org/Graphics/SVG/1.1/DTD/svg11.dtd">
<svg version="1.1" id="Layer_1" xmlns="http://www.w3.org/2000/svg" xmlns:xlink="http://www.w3.org/1999/xlink" x="0px" y="0px"
	 width="612px" height="729.617px" viewBox="0 0 612 729.617" enable-background="new 0 0 612 729.617" xml:space="preserve">
<g>
	<g>
		<g>
			<g>
				<rect fill="#FF004E" width="612" height="470.464"/>
				<rect y="470.464" fill="#C7002F" width="612" height="259.152"/>
			</g>
		</g>
	</g>
</g>
<g>
	<path fill="#FFFFFF" d="M157.519,635.551v-67.806h14.436v67.806H157.519z"/>
	<path fill="#FFFFFF" d="M245.962,635.551v-31.006c0-4.575-2.033-7.828-7.32-7.828c-4.575,0-8.336,3.051-10.166,5.694v33.14h-13.012
		v-31.006c0-4.575-2.032-7.828-7.319-7.828c-4.473,0-8.234,3.051-10.166,5.694v33.14h-12.91V586.45h12.91v6.303
		c2.135-2.846,8.54-7.521,16.062-7.521c7.218,0,11.894,3.354,13.623,8.844c2.846-4.372,9.352-8.844,16.875-8.844
		c9.046,0,14.435,4.777,14.435,14.842v35.478H245.962z"/>
	<path fill="#FFFFFF" d="M284.702,629.247v25.009h-12.91V586.45h12.91v6.202c3.761-4.779,9.149-7.421,15.147-7.421
		c12.606,0,21.754,9.352,21.754,25.719c0,16.366-9.148,25.821-21.754,25.821C294.054,636.771,288.769,634.33,284.702,629.247z
		 M308.287,610.95c0-8.438-5.083-14.233-12.504-14.233c-4.168,0-8.844,2.338-11.081,5.591v17.284
		c2.135,3.149,6.913,5.692,11.081,5.692C303.204,625.284,308.287,619.488,308.287,610.95z"/>
	<path fill="#FFFFFF" d="M360.543,635.551v-5.184c-3.354,4.066-9.148,6.404-15.553,6.404c-7.828,0-16.978-5.287-16.978-16.265
		c0-11.59,9.149-15.86,16.978-15.86c6.607,0,12.3,2.135,15.553,5.998v-6.201c0-4.981-4.27-8.234-10.775-8.234
		c-5.184,0-10.063,2.034-14.131,5.795l-5.082-9.048c5.998-5.387,13.723-7.725,21.45-7.725c11.283,0,21.55,4.472,21.55,18.603v31.717
		H360.543z M360.543,623.76v-6.102c-2.135-2.846-6.2-4.37-10.368-4.37c-5.083,0-9.251,2.745-9.251,7.421s4.168,7.319,9.251,7.319
		C354.343,628.028,358.408,626.605,360.543,623.76z"/>
	<path fill="#FFFFFF" d="M386.269,635.551v-67.806h12.91v67.806H386.269z"/>
	<path fill="#FFFFFF" d="M441.469,635.551v-5.184c-3.354,4.066-9.148,6.404-15.553,6.404c-7.828,0-16.977-5.287-16.977-16.265
		c0-11.59,9.148-15.86,16.977-15.86c6.607,0,12.301,2.135,15.553,5.998v-6.201c0-4.981-4.27-8.234-10.775-8.234
		c-5.184,0-10.062,2.034-14.131,5.795l-5.082-9.048c5.998-5.387,13.723-7.725,21.451-7.725c11.283,0,21.549,4.472,21.549,18.603
		v31.717H441.469z M441.469,623.76v-6.102c-2.135-2.846-6.199-4.37-10.367-4.37c-5.084,0-9.252,2.745-9.252,7.421
		s4.168,7.319,9.252,7.319C435.27,628.028,439.334,626.605,441.469,623.76z"/>
</g>
<g>
	<path fill-rule="evenodd" clip-rule="evenodd" fill="#FFFFFF" d="M273.384,250.4c-0.372-4.874-0.39-9.81-1.181-14.618
		c-3.53-21.465-15.181-38.456-30.497-53.093c-4.976-4.754-7.655-9.834-8.529-16.604c-5.487-42.51,5.512-79.957,34.272-112.05
		c-0.414,0.866-0.785,1.759-1.247,2.599c-18.204,33.085-21.642,68.211-14.29,104.754c0.444,2.203,2.2,4.356,3.83,6.076
		c13.075,13.794,25.029,28.391,31.501,46.555c2.016,5.653,3.171,11.801,3.574,17.801C291.514,242.179,284.504,249.376,273.384,250.4
		z"/>
	<path fill-rule="evenodd" clip-rule="evenodd" fill="#FFFFFF" d="M343.16,55.841c13.012,13.741,22.107,29.899,27.721,47.965
		c6.98,22.465,8.233,45.332,3.642,68.421c-0.475,2.384-1.993,4.925-3.763,6.625c-11.771,11.284-23.011,23.036-30.165,37.866
		c-2.855,5.918-4.579,12.497-5.953,18.957c-0.532,2.508,1.32,5.522,2.087,8.305c2.905-0.945,6.622-1.068,8.562-2.988
		c5.948-5.89,11.512-12.234,16.665-18.84c5.973-7.65,11.351-15.764,17.222-24.005c3.576,18.743-2.375,44.875-17.366,53.296
		c-2.755,1.547-5.034,4.099-7.216,6.479c-9.382,10.226-8.556,17.923,2.593,25.522c-9.048,6.143-13.229,14.666-14.01,25.601
		c-1.817,25.375-5.506,50.429-15.4,74.174c-3.607,8.652-9.881,14.003-20.195,17.265c5.144-11.296-3.527-11.836-8.746-13.771
		c2.964-1.719,6.859-2.768,8.649-5.305c2.583-3.655-0.187-8.609-5.473-11.465c-3.659-1.975-6.866-4.092-5.966-10.434
		c3.265,3.06,6.034,5.245,8.286,7.872c2.504,2.922,4.493,2.666,7.112,0.214c5.151-4.821,7.719-9.791,5.768-17.479
		c-3.315-13.062-3.905-26.582,0.274-39.596c2.302-7.17,5.71-14.181,9.735-20.558c6.016-9.523,6.109-18.518,0.223-27.853
		c-0.405-0.646-0.725-1.35-1.165-1.969c-13.554-19.016-12.087-38.415-0.423-57.344c6.273-10.177,13.015-20.544,21.565-28.707
		c8.906-8.504,11.314-18.264,12.454-29.431C363.061,113.438,357.78,83.908,343.16,55.841z"/>
	<path fill-rule="evenodd" clip-rule="evenodd" fill="#FFFFFF" d="M264.252,283.493c8.888-5.352,16.653-3.446,20.346,6.778
		c3.527,9.761,5.704,20.013,8.476,30.047c-0.581,0.177-1.162,0.356-1.742,0.533c-2.583-6.251-5.23-12.479-7.723-18.765
		c-1.224-3.088-2.995-4.736-6.563-5.36c-2.353-0.415-4.616-2.713-6.404-4.646C268.326,289.581,266.522,286.603,264.252,283.493z"/>
	<path fill-rule="evenodd" clip-rule="evenodd" fill="#FFFFFF" d="M258.233,251.363c-13.919-8.951-23.692-20.735-25.05-38.056
		C245.906,223.012,251.659,237.418,258.233,251.363z"/>
</g>
</svg>
